<?xml version="1.0" standalone="no"?>
<!DOCTYPE svg PUBLIC "-//W3C//DTD SVG 20010904//EN"
 "http://www.w3.org/TR/2001/REC-SVG-20010904/DTD/svg10.dtd">
<svg version="1.0" xmlns="http://www.w3.org/2000/svg"
 width="70.000000pt" height="70.000000pt" viewBox="0 0 70.000000 70.000000"
 preserveAspectRatio="xMidYMid meet">
<metadata>
Created by potrace 1.11, written by Peter Selinger 2001-2013
</metadata>
<g transform="translate(0.000000,70.000000) scale(0.100000,-0.100000)"
fill="#000000" stroke="none">
<path d="M197 585 c-56 -15 -62 -19 -52 -35 4 -7 18 -9 32 -5 21 5 24 3 19
-10 -3 -9 -13 -41 -22 -72 -9 -31 -26 -65 -38 -75 -12 -10 -16 -17 -8 -18 10
0 11 -16 6 -65 -6 -56 -5 -65 10 -65 9 0 16 3 17 8 9 116 18 134 84 171 70 40
145 108 145 132 0 46 -91 62 -193 34z m153 -25 c12 -8 9 -15 -19 -44 -36 -37
-131 -100 -131 -87 0 10 37 118 45 131 8 13 85 13 105 0z"/>
<path d="M487 383 c-11 -19 -58 -186 -63 -226 -6 -39 -4 -46 15 -57 17 -9 32
-8 72 5 55 19 68 42 17 30 -90 -20 -82 -23 -75 26 3 24 17 78 31 119 14 41 26
83 26 93 0 17 -15 24 -23 10z"/>
</g>
</svg>
